<svg xmlns="http://www.w3.org/2000/svg" width="189.424" height="97.102" viewBox="0 0 189.424 97.102">
  <g id="Group_2" data-name="Group 2" transform="translate(-4866 2136.163)">
    <g id="Group_1" data-name="Group 1" transform="translate(4866 -2136.163)">
      <path id="Path_3" data-name="Path 3" d="M474.661,531c-.061.141-.168.183-.279.079a1.1,1.1,0,0,1-.163-.286c.1-.029.227-.109.293-.074S474.614,530.9,474.661,531Z" transform="translate(-435.364 -434.037)" fill="#fff"/>
      <path id="Path_4" data-name="Path 4" d="M394.669,530.564c-.017.049-.033.137-.052.138a.508.508,0,0,1-.167-.051c.017-.048.033-.137.051-.138A.513.513,0,0,1,394.669,530.564Z" transform="translate(-371.275 -433.876)" fill="#fff"/>
      <path id="Path_5" data-name="Path 5" d="M404.652,81.4a11.508,11.508,0,0,0-3.375-1.54c-1.09-.256-2.158-.61-3.678-1.048a4.879,4.879,0,0,1,2.326-.446,11.549,11.549,0,0,0,3.315-.247c.513-.179,1.254-.187,1.325-.96a1.581,1.581,0,0,0-1.049-1.524,7,7,0,0,0-2.828-.752,7.172,7.172,0,0,1-2.886-.705,5.1,5.1,0,0,1,.626-.5c.172-.088.386-.094.558-.181a1.282,1.282,0,0,0,.433-2.2,2.831,2.831,0,0,0-1.564-.749,14.5,14.5,0,0,0-4.883-.217,68.468,68.468,0,0,1-11.775.208c-1.174-.063-2.337-.322-3.511-.389-.927-.053-1.1.374-.652,1.212.44.816,1.369,1.148,1.913,1.9-.56.5-1.177.344-1.735.391-4.64.4-9.294.355-13.944.443a19.948,19.948,0,0,0-3.72.247,6.223,6.223,0,0,0-1.5.44c-.922.457-.944,1.247-.063,1.755a8.025,8.025,0,0,0,3.019.8,6.6,6.6,0,0,1,2.568.523,5.511,5.511,0,0,1-2.61.474c-2.161.029-4.323.036-6.485.055a8.653,8.653,0,0,0-2.9.468c-.441.16-.882.353-.973.868a1.244,1.244,0,0,0,.707,1.3,11.81,11.81,0,0,0,2.736,1.057c2.617.734,5.325.632,7.983.975.4.052.944-.2,1.17.449a1.969,1.969,0,0,1-.339.439c-4.013,2.931-8.63,4.611-13.23,6.3-1.276.469-1.97-.072-2.127-1.474a11.1,11.1,0,0,1,.412-4.659c.759-2.366,1.536-4.727,2.3-7.091a9.213,9.213,0,0,0,.573-3.077.626.626,0,0,0-1.071-.525,5.387,5.387,0,0,0-.906,1.021A18.767,18.767,0,0,0,346,79.994a8.367,8.367,0,0,0-.748,1.927,5.487,5.487,0,0,1-.052-1.553c.038-.76.067-1.521.116-2.281a3.268,3.268,0,0,0-1.353-3.161c-2.207-.867-4.443.246-6.7-.18a7.884,7.884,0,0,1,3.595-1.073,11.834,11.834,0,0,0,1.859-.619,3.328,3.328,0,0,0,2.089-2.873c.026-1.372-.979-2.056-2.1-2.559-.6-.267-1.2-.523-1.816-.735a22.5,22.5,0,0,0-8.157-.88c-4.449.15-8.9.323-13.334.775-2.018.206-4.05.288-6.078.367-.689.027-1.642.21-1.914-.594-.283-.834.643-1.217,1.2-1.6a27.04,27.04,0,0,1,6.542-3.067,9.225,9.225,0,0,0,3.913-2.153c1.223-1.3.853-2.471-.895-2.8a15.292,15.292,0,0,0-3.527.03c-3.6.154-7.195.342-10.794.417-.9.019-2.346.234-2.451-.972-.091-1.044,1.258-1.323,2.191-1.582A80.752,80.752,0,0,1,320.7,52.471c3.515-.372,7.026-.779,10.538-1.174a5.676,5.676,0,0,0,3.8-1.822c1.1-1.257.767-2.46-.8-3.056a5.638,5.638,0,0,0-1.94-.235c-2.488-.046-4.977-.06-7.464-.119-.469-.011-1.067.174-1.329-.473.085-.12.135-.274.236-.321a57.768,57.768,0,0,1,16.809-4.4,2.546,2.546,0,0,1,2.882,1.54,3.9,3.9,0,0,0,3.309,2.134,8.942,8.942,0,0,0,2.543-.033c2.4-.354,4.745-.942,7.109-1.459,3.58-.783,7.186-1.554,10.89-1.15a9.9,9.9,0,0,1,5.215,1.762c-1.842.906-3.388,1.74-4.991,2.441a121.023,121.023,0,0,0-13.48,6.755,15.6,15.6,0,0,0-4.635,3.566c-1.77,2.276-.774,4.72,2.1,5.127a9.912,9.912,0,0,0,2.939-.058c2.391-.378,4.773-.812,7.164-1.195,4.006-.642,8.008-1.328,12.063-1.593a5.856,5.856,0,0,1,2.553.128,1.675,1.675,0,0,1-1.4,1.063c-2.658.692-5.314,1.389-7.975,2.069-3.738.955-7.461,1.941-10.824,3.936A11.076,11.076,0,0,0,352.2,69.5a2.949,2.949,0,0,0,.2,3.8,2.719,2.719,0,0,0,3.855.693c2.846-1.578,5.738-3.127,7.749-5.828.215-1.525-.289-2.04-1.585-1.57a4.739,4.739,0,0,0-1.477.837l.014-.011c-.22.208-.6.131-.769.434a3.058,3.058,0,0,0-1.159.782.631.631,0,0,0-.412.4c-.8.329-1.284,1.065-1.971,1.54-.4.261-.883.406-1.147.849-.475.124-1,.336-.921-.522a23.519,23.519,0,0,1,1.965-2.028l-.028.033a.732.732,0,0,0,.468-.36l-.016.008a8.4,8.4,0,0,0,1.2-.79l-.015.007c.216-.208.607-.126.755-.446a3.593,3.593,0,0,0,1.207-.746c.239-.188.608-.124.8-.409.239-.165.6-.112.765-.4,3.025-1.3,6.2-1.416,9.281-2.5,1.376-.393,1.639-.381,2.382-.6a17.983,17.983,0,0,0,5.525-2.461c.7-.5,1.373-1.1,1.105-2.106a2.653,2.653,0,0,0-1.869-2.088,8.369,8.369,0,0,0-2.337-.235,42.294,42.294,0,0,0-7.612.787,133.394,133.394,0,0,1-15.733,2.285c-.412.029-.891.334-1.277-.247a6.819,6.819,0,0,1,1.66-2.1,28.844,28.844,0,0,1,9.824-5.959c3.632-1.474,7.3-2.868,10.957-4.266a4.983,4.983,0,0,0,1.513-.881,2.183,2.183,0,0,0-.213-3.751,9.264,9.264,0,0,0-2.729-1.071,30.1,30.1,0,0,0-11.507-.281c-3.053.433-6.035,1.176-9.043,1.811a13.316,13.316,0,0,1-3.507.36,2.6,2.6,0,0,1-2.6-1.729,2.6,2.6,0,0,0-2.543-1.775,14.553,14.553,0,0,0-2.546-.057A56.842,56.842,0,0,0,329.6,40.911a39.984,39.984,0,0,0-8.625,3.2c-.88.463-1.871,1-1.664,2.151.186,1.036,1.272,1.2,2.148,1.446a29.669,29.669,0,0,0,7.2.867,4.162,4.162,0,0,0,.9.236c.927.3-.292.309-.071.514-2.788.391-5.567.872-8.366,1.154a99.209,99.209,0,0,0-14.512,2.419,10.71,10.71,0,0,0-4.267,1.9,2.438,2.438,0,0,0-.434,3.773,2.961,2.961,0,0,0,2.277,1.359c1.111.064,2.225.165,3.334.127,3.011-.1,6.02-.277,9.03-.4.394-.017.859-.2,1.343.338-.756.273-1.371.468-1.965.714a19.748,19.748,0,0,0-6.118,3.431,4.3,4.3,0,0,0-1.18,1.769,1.915,1.915,0,0,0,1.394,2.723,20.169,20.169,0,0,0,2.662.672c3.483.664,6.928.179,10.361-.324a56.2,56.2,0,0,1,14.1-.325,6.059,6.059,0,0,1,2.788.853c.454.3.6.634.083,1.08a7.931,7.931,0,0,1-2.731,1.5c-2.3.757-4.508,1.752-6.857,2.368a3.512,3.512,0,0,0-2.409,1.863c-.546,1.137-.217,1.916,1.005,2.186a4.149,4.149,0,0,0,1.359.054c1.364-.163,2.724-.36,4.082-.573a43.481,43.481,0,0,1,6.641-.667c1.758,0,1.894.15,1.746,1.944a23.4,23.4,0,0,1-1.59,6.253,55.721,55.721,0,0,1-4.023,8.053c-.332.583-1.023,1.347-.264,1.914.723.539,1.49-.07,2.1-.582a5.166,5.166,0,0,0,.758-.881,17.022,17.022,0,0,0,1.863-3.436A2.435,2.435,0,0,1,343,89.03c.073,1.477.107,2.769.208,4.056a3.419,3.419,0,0,0,2.859,3.485,8.392,8.392,0,0,0,5.2-.343,20.025,20.025,0,0,0,6.963-4.283c2.968-2.7,6.131-5.128,10.147-6.091a29.166,29.166,0,0,1,8.386-.692,40.3,40.3,0,0,0,8.436-.25,75.585,75.585,0,0,1,11.563-.581c1.769-.009,3.538-.01,5.306-.061a13.353,13.353,0,0,0,2.141-.263c.584-.113,1.2-.324,1.333-1A1.528,1.528,0,0,0,404.652,81.4Z" transform="translate(-296.361 -38.867)" fill="#fff"/>
      <path id="Path_9" data-name="Path 9" d="M559.2,360.19a43.689,43.689,0,0,0,3.721,2.387,9.756,9.756,0,0,0,5.305,1.079,4.211,4.211,0,0,0,2.49-1.045,2.889,2.889,0,0,0-.292-4.815c-1.542-1.077-3.358-1.406-5.088-1.975-.931-.306-1.876-.571-2.8-.9a8.135,8.135,0,0,1-5.846-7.974c-.162-4.982,1.8-9.277,6.559-11.518a13.378,13.378,0,0,1,7.086-1.162,27.415,27.415,0,0,1,8.669,2.339c.783.354,1.07.725.542,1.621-1.121,1.9-2.1,3.891-3.16,5.888-1.258-.516-2.221-1.331-3.424-1.689a9.627,9.627,0,0,0-3.294-.37,3.866,3.866,0,0,0-1.677.506c-2.011,1.1-2.179,3.271-.3,4.574a12.615,12.615,0,0,0,3.815,1.506,24.826,24.826,0,0,1,5.631,2.246,8.019,8.019,0,0,1,4.185,5.865c.581,3.825.024,7.5-2.571,10.52a12.793,12.793,0,0,1-8.244,4.137,21.027,21.027,0,0,1-15.154-3.876C556.448,365,557.934,362.731,559.2,360.19Z" transform="translate(-500.552 -276.146)" fill="#fff"/>
      <path id="Path_10" data-name="Path 10" d="M285.917,356.846q0,7.946,0,15.892c0,1.754-.017,1.77-1.694,1.782-2.158.016-4.317-.014-6.475.012-.816.01-1.232-.292-1.185-1.14.018-.326,0-.654,0-.981q0-15.6,0-31.2a7.4,7.4,0,0,0,0-.784c-.106-.986.27-1.431,1.315-1.409,2.223.047,4.447-.01,6.671.022,1.319.018,1.363.076,1.368,1.518.014,4.316,0,8.633,0,12.949Q285.916,355.179,285.917,356.846Z" transform="translate(-276.541 -280.024)" fill="#fff"/>
      <path id="Path_11" data-name="Path 11" d="M378.381,342.284c-3.927-5.176-9.338-7.629-15.757-7.9a17.227,17.227,0,0,0-7.842,1.452c-.583.428-1.334.462-1.945.825a5.636,5.636,0,0,0-1.844,1.077c-9.688,5.928-10.83,17.962-4.7,26.365,3.917,5.372,9.5,7.53,16.03,7.608a18.981,18.981,0,0,0,18.837-13.981C382.629,352.108,381.893,346.913,378.381,342.284Zm-12.107,19.557a9.866,9.866,0,0,1-13.511-5.926,9.076,9.076,0,0,1,4.006-11.021,10.186,10.186,0,0,1,12.353,1.148,4.21,4.21,0,0,1,1.4,1.61c.278.383.49.808.758,1.2C373.315,354.161,371.3,359.665,366.273,361.841Z" transform="translate(-329.541 -276.281)" fill="#fff"/>
      <path id="Path_12" data-name="Path 12" d="M485.76,403.17a1.134,1.134,0,0,1-.758-1.2A1.273,1.273,0,0,1,485.76,403.17Z" transform="translate(-444.024 -330.601)" fill="#fff"/>
    </g>
    <path id="Path_72" data-name="Path 72" d="M3-4.524a2.411,2.411,0,0,0,.2,1,2.518,2.518,0,0,0,.552.792,2.5,2.5,0,0,0,.81.522,2.594,2.594,0,0,0,.978.186,2.594,2.594,0,0,0,.978-.186,2.565,2.565,0,0,0,.816-.522A2.472,2.472,0,0,0,7.9-3.528a2.411,2.411,0,0,0,.2-1,2.411,2.411,0,0,0-.2-1,2.472,2.472,0,0,0-.558-.792,2.565,2.565,0,0,0-.816-.522,2.594,2.594,0,0,0-.978-.186,2.594,2.594,0,0,0-.978.186,2.5,2.5,0,0,0-.81.522A2.518,2.518,0,0,0,3.2-5.52,2.411,2.411,0,0,0,3-4.524Zm-2.46,0A4.726,4.726,0,0,1,.912-6.4,4.686,4.686,0,0,1,1.944-7.92,4.715,4.715,0,0,1,3.522-8.934,5.413,5.413,0,0,1,5.544-9.3a5.426,5.426,0,0,1,2.016.366A4.769,4.769,0,0,1,9.15-7.92,4.641,4.641,0,0,1,10.188-6.4a4.726,4.726,0,0,1,.372,1.878,4.726,4.726,0,0,1-.372,1.878A4.641,4.641,0,0,1,9.15-1.128,4.769,4.769,0,0,1,7.56-.114,5.426,5.426,0,0,1,5.544.252,5.413,5.413,0,0,1,3.522-.114,4.715,4.715,0,0,1,1.944-1.128,4.686,4.686,0,0,1,.912-2.646,4.726,4.726,0,0,1,.54-4.524ZM14.4-4.9h.78q1.3,0,1.3-1.128t-1.3-1.128H14.4Zm0,4.9H12.048V-9.048h3.744a3.2,3.2,0,0,1,2.334.792,2.979,2.979,0,0,1,.81,2.232,2.979,2.979,0,0,1-.81,2.232A3.2,3.2,0,0,1,15.792-3H14.4Zm7.836-4.524a2.411,2.411,0,0,0,.2,1,2.518,2.518,0,0,0,.552.792,2.5,2.5,0,0,0,.81.522,2.594,2.594,0,0,0,.978.186,2.594,2.594,0,0,0,.978-.186,2.565,2.565,0,0,0,.816-.522,2.472,2.472,0,0,0,.558-.792,2.411,2.411,0,0,0,.2-1,2.411,2.411,0,0,0-.2-1,2.472,2.472,0,0,0-.558-.792,2.565,2.565,0,0,0-.816-.522,2.594,2.594,0,0,0-.978-.186,2.594,2.594,0,0,0-.978.186,2.5,2.5,0,0,0-.81.522,2.518,2.518,0,0,0-.552.792A2.411,2.411,0,0,0,22.236-4.524Zm-2.46,0A4.726,4.726,0,0,1,20.148-6.4,4.686,4.686,0,0,1,21.18-7.92a4.715,4.715,0,0,1,1.578-1.014A5.413,5.413,0,0,1,24.78-9.3a5.426,5.426,0,0,1,2.016.366,4.769,4.769,0,0,1,1.59,1.014A4.641,4.641,0,0,1,29.424-6.4,4.726,4.726,0,0,1,29.8-4.524a4.726,4.726,0,0,1-.372,1.878,4.641,4.641,0,0,1-1.038,1.518A4.769,4.769,0,0,1,26.8-.114,5.426,5.426,0,0,1,24.78.252a5.413,5.413,0,0,1-2.022-.366A4.715,4.715,0,0,1,21.18-1.128a4.686,4.686,0,0,1-1.032-1.518A4.726,4.726,0,0,1,19.776-4.524ZM33.636-5h.444a1.715,1.715,0,0,0,1.068-.288.985.985,0,0,0,.372-.828.985.985,0,0,0-.372-.828,1.715,1.715,0,0,0-1.068-.288h-.444Zm5.172,5H35.88L33.636-3.48V0H31.284V-9.048h3.66a3.592,3.592,0,0,1,1.32.222,2.554,2.554,0,0,1,.93.606,2.555,2.555,0,0,1,.552.888,3.1,3.1,0,0,1,.186,1.08,2.654,2.654,0,0,1-.5,1.674,2.508,2.508,0,0,1-1.47.87Zm4.428-7.056V0H40.884V-7.056H38.952V-9.048h6.216v1.992Zm5.328-1.992v4.92q0,.4.03.81a2.22,2.22,0,0,0,.18.75,1.248,1.248,0,0,0,.474.546,1.672,1.672,0,0,0,.912.21,1.641,1.641,0,0,0,.906-.21,1.3,1.3,0,0,0,.474-.546,2.132,2.132,0,0,0,.186-.75q.03-.414.03-.81v-4.92H54.1V-3.8A4.235,4.235,0,0,1,53.13-.72a4.029,4.029,0,0,1-2.97.972A4.051,4.051,0,0,1,47.184-.72,4.219,4.219,0,0,1,46.212-3.8V-9.048ZM55.992,0V-9.048h2.352l4.344,5.532V-9.048h2.34V0h-2.34L58.344-5.532V0ZM69.276-9.048V0H66.924V-9.048Zm4.248,7.056h.54a2.921,2.921,0,0,0,1.092-.192,2.332,2.332,0,0,0,.81-.528,2.261,2.261,0,0,0,.5-.8,2.856,2.856,0,0,0,.174-1.014,2.784,2.784,0,0,0-.18-1.008,2.321,2.321,0,0,0-.51-.8,2.332,2.332,0,0,0-.81-.528,2.886,2.886,0,0,0-1.08-.192h-.54ZM71.172-9.048h3.48a4.1,4.1,0,0,1,1.734.372,4.726,4.726,0,0,1,1.416.99,4.593,4.593,0,0,1,.954,1.44A4.373,4.373,0,0,1,79.1-4.524a4.409,4.409,0,0,1-.342,1.71,4.58,4.58,0,0,1-.948,1.446,4.673,4.673,0,0,1-1.416,1A4.133,4.133,0,0,1,74.652,0h-3.48ZM85.14-3.36,84.084-6.372,83.028-3.36Zm.624,1.788H82.4L81.864,0H79.356L82.8-9.048h2.568L88.812,0H86.3Zm6.432-.42h.54a2.921,2.921,0,0,0,1.092-.192,2.332,2.332,0,0,0,.81-.528,2.261,2.261,0,0,0,.5-.8,2.856,2.856,0,0,0,.174-1.014,2.784,2.784,0,0,0-.18-1.008,2.321,2.321,0,0,0-.51-.8,2.332,2.332,0,0,0-.81-.528,2.886,2.886,0,0,0-1.08-.192H92.2ZM89.844-9.048h3.48a4.1,4.1,0,0,1,1.734.372,4.726,4.726,0,0,1,1.416.99,4.593,4.593,0,0,1,.954,1.44,4.373,4.373,0,0,1,.348,1.722,4.409,4.409,0,0,1-.342,1.71,4.58,4.58,0,0,1-.948,1.446,4.673,4.673,0,0,1-1.416,1A4.133,4.133,0,0,1,93.324,0h-3.48Zm14.58,1.992h-2.8v1.512h2.64v1.992h-2.64v1.56h2.8V0H99.276V-9.048h5.148ZM5.916,7.268a2.9,2.9,0,0,0-.768-.462,2.039,2.039,0,0,0-.744-.15,1.207,1.207,0,0,0-.744.216.673.673,0,0,0-.288.564.561.561,0,0,0,.144.4,1.255,1.255,0,0,0,.378.27,3.235,3.235,0,0,0,.528.2q.294.084.582.18A3.629,3.629,0,0,1,6.69,9.506a2.531,2.531,0,0,1,.534,1.674,3.259,3.259,0,0,1-.234,1.26,2.629,2.629,0,0,1-.684.966,3.156,3.156,0,0,1-1.1.624,4.6,4.6,0,0,1-1.482.222,5.45,5.45,0,0,1-3.18-1.02l1.008-1.9a4.089,4.089,0,0,0,1.044.7,2.509,2.509,0,0,0,1.02.228A1.217,1.217,0,0,0,4.47,12a.818.818,0,0,0,.21-.954.767.767,0,0,0-.24-.276A1.923,1.923,0,0,0,4,10.532q-.27-.108-.654-.24-.456-.144-.894-.318a2.813,2.813,0,0,1-.78-.462,2.147,2.147,0,0,1-.552-.726,2.567,2.567,0,0,1-.21-1.11,3.207,3.207,0,0,1,.222-1.218,2.707,2.707,0,0,1,.624-.936,2.781,2.781,0,0,1,.984-.606,3.72,3.72,0,0,1,1.3-.216,5.7,5.7,0,0,1,1.4.186,6.192,6.192,0,0,1,1.4.546Zm4.836,2.208a2.411,2.411,0,0,0,.2,1,2.491,2.491,0,0,0,1.362,1.314,2.664,2.664,0,0,0,1.956,0,2.565,2.565,0,0,0,.816-.522,2.472,2.472,0,0,0,.558-.792,2.533,2.533,0,0,0,0-1.992,2.472,2.472,0,0,0-.558-.792,2.565,2.565,0,0,0-.816-.522,2.664,2.664,0,0,0-1.956,0A2.491,2.491,0,0,0,10.956,8.48,2.411,2.411,0,0,0,10.752,9.476Zm-2.46,0a4.662,4.662,0,0,1,2.982-4.41,5.752,5.752,0,0,1,4.038,0A4.769,4.769,0,0,1,16.9,6.08,4.641,4.641,0,0,1,17.94,7.6a4.926,4.926,0,0,1,0,3.756A4.641,4.641,0,0,1,16.9,12.872a4.769,4.769,0,0,1-1.59,1.014,5.752,5.752,0,0,1-4.038,0,4.68,4.68,0,0,1-2.982-4.41Zm18.024-1.5a2.51,2.51,0,0,0-2.016-1,2.466,2.466,0,0,0-.978.192A2.343,2.343,0,0,0,22.038,8.48a2.58,2.58,0,0,0-.186.984,2.612,2.612,0,0,0,.186,1,2.4,2.4,0,0,0,1.29,1.32,2.392,2.392,0,0,0,.96.192,2.724,2.724,0,0,0,2.028-.96V13.8l-.24.084a6.944,6.944,0,0,1-1.008.282,4.885,4.885,0,0,1-.924.09,4.723,4.723,0,0,1-3.306-1.35,4.955,4.955,0,0,1-1.05-1.524,4.648,4.648,0,0,1-.4-1.926,4.626,4.626,0,0,1,.39-1.914A4.779,4.779,0,0,1,24.156,4.7a4.963,4.963,0,0,1,1.062.114,6.442,6.442,0,0,1,1.1.354Zm3.84-3.024V14H27.8V4.952Zm6.816,5.688L35.916,7.628,34.86,10.64Zm.624,1.788h-3.36L33.7,14H31.188l3.444-9.048H37.2L40.644,14H38.136Zm6.432-7.476v7.056h2.82V14H41.676V4.952Z" transform="translate(4951 -2058)" fill="#fff"/>
    <path id="Path_73" data-name="Path 73" d="M1.429-5.277V0h-.8V-5.277ZM2.7,0V-5.636L6.545-1.61V-5.277h.8v5.6L3.493-3.695V0ZM11.59-4.491l-.646.383a1.11,1.11,0,0,0-.345-.41.805.805,0,0,0-.441-.109.814.814,0,0,0-.55.188.583.583,0,0,0-.219.465q0,.386.574.622l.526.215a2.247,2.247,0,0,1,.94.634,1.429,1.429,0,0,1,.3.918,1.612,1.612,0,0,1-.485,1.2A1.666,1.666,0,0,1,10.028.1,1.623,1.623,0,0,1,8.894-.311a1.873,1.873,0,0,1-.55-1.145l.807-.178a1.372,1.372,0,0,0,.191.643.829.829,0,0,0,.718.342.833.833,0,0,0,.619-.25.863.863,0,0,0,.246-.632.887.887,0,0,0-.043-.282.715.715,0,0,0-.133-.236,1.065,1.065,0,0,0-.234-.2,2.256,2.256,0,0,0-.342-.179l-.509-.212a1.466,1.466,0,0,1-1.083-1.34,1.271,1.271,0,0,1,.455-.995,1.642,1.642,0,0,1,1.131-.4A1.58,1.58,0,0,1,11.59-4.491Zm2.652-.038V0h-.8V-4.529H12.233v-.749h3.22v.749Zm2.717-.749V0h-.8V-5.277Zm2.724.749V0h-.8V-4.529H17.674v-.749h3.22v.749ZM22.4-5.277V-2.1a1.75,1.75,0,0,0,.222.995,1.088,1.088,0,0,0,.933.455,1.091,1.091,0,0,0,.937-.455,1.72,1.72,0,0,0,.222-.995V-5.277h.8v3.4a1.9,1.9,0,0,1-.52,1.374,1.924,1.924,0,0,1-1.436.6,1.913,1.913,0,0,1-1.432-.6A1.9,1.9,0,0,1,21.6-1.88v-3.4Zm5.831.749V0h-.8V-4.529H26.223v-.749h3.22v.749Zm1.49,1.866a2.585,2.585,0,0,1,.817-1.914,2.689,2.689,0,0,1,1.955-.8,2.639,2.639,0,0,1,1.935.807,2.637,2.637,0,0,1,.81,1.938A2.6,2.6,0,0,1,34.426-.7a2.722,2.722,0,0,1-1.972.8,2.723,2.723,0,0,1-1.835-.708A2.593,2.593,0,0,1,29.723-2.663Zm.8.01a1.907,1.907,0,0,0,.588,1.439,1.887,1.887,0,0,0,1.35.564,1.9,1.9,0,0,0,1.4-.574,1.943,1.943,0,0,0,.571-1.415,1.934,1.934,0,0,0-.564-1.415,1.862,1.862,0,0,0-1.388-.574,1.88,1.88,0,0,0-1.391.574A1.9,1.9,0,0,0,30.526-2.652ZM38.4,0V-5.277h1.107a4.03,4.03,0,0,1,1.258.157,2.354,2.354,0,0,1,.9.523,2.525,2.525,0,0,1,.817,1.958A2.5,2.5,0,0,1,41.631-.67a2.485,2.485,0,0,1-.9.523A4.076,4.076,0,0,1,39.495,0Zm.8-.749h.359a3,3,0,0,0,.892-.113,1.811,1.811,0,0,0,.643-.379,1.8,1.8,0,0,0,.588-1.4A1.834,1.834,0,0,0,41.1-4.047a2.2,2.2,0,0,0-1.542-.482H39.2Zm7.126-.533H44.064L43.477,0h-.858L45.23-5.609,47.749,0h-.872ZM46-2.03l-.783-1.794L44.4-2.03Z" transform="translate(4951 -2073)" fill="#fff"/>
  </g>
</svg>
