<?xml version="1.0" standalone="no"?>
<!DOCTYPE svg PUBLIC "-//W3C//DTD SVG 20010904//EN"
 "http://www.w3.org/TR/2001/REC-SVG-20010904/DTD/svg10.dtd">
<svg version="1.0" xmlns="http://www.w3.org/2000/svg"
 width="1280.000000pt" height="780.000000pt" viewBox="0 0 1280.000000 780.000000"
 preserveAspectRatio="xMidYMid meet">
<metadata>
Created by potrace 1.15, written by Peter Selinger 2001-2017
</metadata>
<g transform="translate(0.000000,780.000000) scale(0.100000,-0.100000)"
fill="#000000" stroke="none">
<path d="M576 7752 c38 -27 1235 -847 2659 -1822 1425 -975 2723 -1865 2887
-1977 163 -111 299 -203 303 -203 4 0 141 91 304 203 163 112 1475 1010 2916
1997 1441 986 2638 1806 2659 1822 l40 28 -5919 0 -5919 0 70 -48z"/>
<path d="M2 3764 l3 -3499 27 -55 c35 -71 107 -143 178 -178 l55 -27 6135 0
6135 0 55 27 c71 35 143 107 178 178 l27 55 3 3483 c1 1915 0 3482 -3 3482 -3
0 -549 -372 -1213 -827 -664 -454 -1949 -1335 -2857 -1956 -907 -622 -1740
-1192 -1850 -1267 -110 -76 -209 -142 -220 -147 -11 -6 -62 -22 -113 -37 -119
-33 -206 -34 -283 -3 -31 13 -283 179 -560 369 -277 189 -1411 966 -2519 1725
-2827 1936 -3121 2137 -3153 2157 l-27 18 2 -3498z"/>
</g>
</svg>
