<?xml version="1.0" encoding="UTF-8"?>
<!DOCTYPE svg PUBLIC "-//W3C//DTD SVG 1.1//EN" "http://www.w3.org/Graphics/SVG/1.1/DTD/svg11.dtd">
<!-- Creator: CorelDRAW 2021.5 -->
<svg xmlns="http://www.w3.org/2000/svg" xml:space="preserve" width="655.503mm" height="347.775mm" version="1.1" shape-rendering="geometricPrecision" text-rendering="geometricPrecision" image-rendering="optimizeQuality" fill-rule="evenodd" clip-rule="evenodd"
viewBox="0 0 65534.46 34769.11"
 xmlns:xlink="http://www.w3.org/1999/xlink"
 xmlns:xodm="http://www.corel.com/coreldraw/odm/2003">
 <defs>
      <clipPath id="id0">
       <path d="M33481.9 29192.43c925.01,4004.94 3420.76,3878.75 6271.32,3913.92 629.69,-315.75 1983.98,-1382.49 2655.31,-2198.11 156.97,-395.66 468.33,-6342.71 -4261.74,-9746.92 -2334.65,743.74 -4664.89,4667.74 -4664.89,8031.11z"/>
      </clipPath>
       <clipPath id="id1">
        <path d="M34777.6 7804.46l6756.35 -7764.51 -19337.26 -7.54c-115.74,4905.78 4408.95,7770.29 7638.46,7770.98l4942.45 1.07z"/>
       </clipPath>
        <clipPath id="id2">
         <path d="M36730.52 21982.01c584.2,-463.85 890.02,-628.98 1416.28,-820.69 3000.18,1883.08 4468.37,5090.88 4261.74,9746.92 -755.04,-4906.05 -2324.05,-7972.03 -5678.02,-8926.23z"/>
        </clipPath>
        <clipPath id="id3">
         <path d="M41533.84 40.07l-8496.67 7758.61 1753.02 0 6743.65 -7758.61z"/>
        </clipPath>
        <clipPath id="id4">
         <path d="M27509.78 16156.88c6580.35,2246.73 15293.9,4994.87 14898.76,14751.36 4624.56,-3997.97 3842.29,-14529.74 -1780.72,-17993.18l4447.15 -5110.72 -3541.02 -7764.49 -14024.17 16117.03z"/>
        </clipPath>
       <clipPath id="id5">
        <path d="M39753.23 33106.35c-4219.78,409.79 -6202.48,-981.59 -6271.32,-3913.92 2.8,-486.42 66.76,-1228.78 190.81,-1746.52 164,3121.38 1844.45,5273.52 6080.51,5660.44z"/>
       </clipPath>
       <clipPath id="id6">
        <path d="M32932.38 34759.33c2559.37,90.51 5252.43,-533.49 6820.85,-1652.97 -3167.18,-232.63 -5570.68,-359.28 -6305.73,-4078.65 -314.97,-1753.84 -970.52,-4913.45 -1810.03,-6195.47 -2046.92,-2967.22 -7766.44,-4413.62 -10919.71,-3438.05 -2459.3,5701.96 4965.51,15239.77 12214.62,15365.14z"/>
       </clipPath>
       <clipPath id="id7">
        <path d="M12231.36 34741.97l6207.71 5.43 -10293.34 -21831.84c-1885.71,3494.22 -3176.39,8416.67 -2789.02,12306.54l3882.89 8231.26c511.26,1083.8 1845.12,1287.58 2991.76,1288.61z"/>
       </clipPath>
        <clipPath id="id8">
         <path d="M14233.97 0l-6196.85 0.26c-2323.53,72.66 -2894,1236.11 -3653.26,2681.95l-3887.28 8243.93c-820.8,1740.64 -543.84,3022.01 246.44,4515.17l4613.69 9780.8c-334.37,-4671.62 1166.55,-8864.83 2789.02,-12306.54l6088.24 -12915.56z"/>
        </clipPath>
        <clipPath id="id9">
         <path d="M5354.13 25216.6c-312.14,-4925.32 1187.33,-9124.63 2791.6,-12318.7l801.61 1707.22c-1406.22,1981.17 -3866.87,7457.01 -3593.21,10611.48z"/>
        </clipPath>
       <clipPath id="id10">
        <path d="M53248.07 22.2l-6207.71 10.24 10348.43 21805.78c1876.89,-3498.95 3155.13,-8424.66 2757.93,-12313.54l-3903.66 -8221.42c-514,-1082.51 -1848.37,-1282.91 -2995,-1281.05z"/>
       </clipPath>
        <clipPath id="id11">
         <path d="M51333.18 34769.11l6196.83 -15.9c2323.34,-78.53 2890.87,-1243.43 3646.48,-2691.18l3866.45 -8253.7c816.4,-1742.71 536.21,-3023.38 -257.85,-4514.54l-4638.36 -9769.12c346.16,4670.76 -1144.17,8867.74 -2757.93,12313.54l-6055.62 12930.89z"/>
        </clipPath>
        <clipPath id="id12">
         <path d="M60149.33 9530.18c324.59,4924.53 -1164.29,9127.59 -2760.5,12325.71l-805.91 -1705.18c1401.21,-1984.72 3848.05,-7466.75 3566.41,-10620.53z"/>
        </clipPath>
 </defs>
 <g id="Camada_x0020_1">
  <metadata id="CorelCorpID_0Corel-Layer"/>
  <g id="_2068206267424">
   <g>
    <g>
     <path fill="#3CAAC1" d="M33481.9 29192.43c925.01,4004.94 3420.76,3878.75 6271.32,3913.92 629.69,-315.75 1983.98,-1382.49 2655.31,-2198.11 156.97,-395.66 468.33,-6342.71 -4261.74,-9746.92 -2334.65,743.74 -4664.89,4667.74 -4664.89,8031.11z"/>
     <g clip-path="url(#id0)">
      <image x="33481.9" y="21161.32" width="8997.87" height="11945.03" xlink:href="logo-A3GS_Images\logo-A3GS_ImgID1.png"/>
     </g>
     <path fill="#3DAABE" d="M34777.6 7804.46l6756.35 -7764.51 -19337.26 -7.54c-115.74,4905.78 4408.95,7770.29 7638.46,7770.98l4942.45 1.07z"/>
     <g>
      <g clip-path="url(#id1)">
       <image x="22194.5" y="32.41" width="19339.44" height="7772.05" xlink:href="logo-A3GS_Images\logo-A3GS_ImgID2.png"/>
      </g>
     </g>
     <g>
      <path fill="#4D4D4D" fill-opacity="0.231373" d="M36730.52 21982.01c584.2,-463.85 890.02,-628.98 1416.28,-820.69 3000.18,1883.08 4468.37,5090.88 4261.74,9746.92 -755.04,-4906.05 -2324.05,-7972.03 -5678.02,-8926.23z"/>
      <g>
       <g clip-path="url(#id2)">
        <image x="36730.52" y="21161.32" width="5697.17" height="9746.92" xlink:href="logo-A3GS_Images\logo-A3GS_ImgID3.png"/>
       </g>
      </g>
      <polygon fill="#4D4D4D" fill-opacity="0.231373" points="41533.84,40.07 33037.17,7798.68 34790.19,7798.68 "/>
      <g>
       <g clip-path="url(#id3)">
        <image x="33037.17" y="40.07" width="8496.67" height="7758.61" xlink:href="logo-A3GS_Images\logo-A3GS_ImgID4.png"/>
       </g>
      </g>
      <path fill="#0149F2" d="M27509.78 16156.88c6580.35,2246.73 15293.9,4994.87 14898.76,14751.36 4624.56,-3997.97 3842.29,-14529.74 -1780.72,-17993.18l4447.15 -5110.72 -3541.02 -7764.49 -14024.17 16117.03z"/>
      <g>
       <g clip-path="url(#id4)">
        <image x="27509.78" y="39.85" width="17911.2" height="30868.4" xlink:href="logo-A3GS_Images\logo-A3GS_ImgID5.png"/>
       </g>
      </g>
     </g>
     <g>
      <g clip-path="url(#id5)">
       <image x="33481.9" y="27445.91" width="6271.32" height="5730.75" xlink:href="logo-A3GS_Images\logo-A3GS_ImgID6.png"/>
      </g>
      <path fill="#0149F2" d="M32932.38 34759.33c2559.37,90.51 5252.43,-533.49 6820.85,-1652.97 -3167.18,-232.63 -5570.68,-359.28 -6305.73,-4078.65 -314.97,-1753.84 -970.52,-4913.45 -1810.03,-6195.47 -2046.92,-2967.22 -7766.44,-4413.62 -10919.71,-3438.05 -2459.3,5701.96 4965.51,15239.77 12214.62,15365.14z"/>
      <g clip-path="url(#id6)">
       <image x="20237.35" y="19091.64" width="19515.88" height="15676.34" xlink:href="logo-A3GS_Images\logo-A3GS_ImgID7.png"/>
      </g>
     </g>
    </g>
    <g>
     <path fill="#3CAAC1" d="M12231.36 34741.97l6207.71 5.43 -10293.34 -21831.84c-1885.71,3494.22 -3176.39,8416.67 -2789.02,12306.54l3882.89 8231.26c511.26,1083.8 1845.12,1287.58 2991.76,1288.61z"/>
     <g>
      <g clip-path="url(#id7)">
       <image x="5287.87" y="12915.56" width="13151.2" height="21831.84" xlink:href="logo-A3GS_Images\logo-A3GS_ImgID8.png"/>
      </g>
     </g>
     <g>
      <path fill="#0149F2" d="M14233.97 0l-6196.85 0.26c-2323.53,72.66 -2894,1236.11 -3653.26,2681.95l-3887.28 8243.93c-820.8,1740.64 -543.84,3022.01 246.44,4515.17l4613.69 9780.8c-334.37,-4671.62 1166.55,-8864.83 2789.02,-12306.54l6088.24 -12915.56z"/>
      <g>
       <g clip-path="url(#id8)">
        <image x="-0" y="0" width="14233.97" height="25222.1" xlink:href="logo-A3GS_Images\logo-A3GS_ImgID9.png"/>
       </g>
      </g>
      <path fill="#4D4D4D" fill-opacity="0.231373" d="M5354.13 25216.6c-312.14,-4925.32 1187.33,-9124.63 2791.6,-12318.7l801.61 1707.22c-1406.22,1981.17 -3866.87,7457.01 -3593.21,10611.48z"/>
      <g>
       <g clip-path="url(#id9)">
        <image x="5312.62" y="12897.9" width="3634.72" height="12318.7" xlink:href="logo-A3GS_Images\logo-A3GS_ImgID10.png"/>
       </g>
      </g>
     </g>
    </g>
    <g>
     <path fill="#3CAAC1" d="M53248.06 22.19l-6207.7 10.25 10348.43 21805.79c1876.89,-3498.96 3155.13,-8424.67 2757.93,-12313.55l-3903.67 -8221.43c-513.99,-1082.5 -1848.35,-1282.91 -2995,-1281.05z"/>
     <g>
      <g clip-path="url(#id10)">
       <image x="47040.37" y="22.18" width="13178.89" height="21816.03" xlink:href="logo-A3GS_Images\logo-A3GS_ImgID11.png"/>
      </g>
     </g>
     <g>
      <path fill="#0149F2" d="M51333.18 34769.11l6196.83 -15.91c2323.34,-78.53 2890.87,-1243.41 3646.47,-2691.16l3866.47 -8253.72c816.4,-1742.7 536.2,-3023.37 -257.85,-4514.53l-4638.37 -9769.12c346.16,4670.76 -1144.17,8867.76 -2757.93,12313.55l-6055.62 12930.88z"/>
      <g>
       <g clip-path="url(#id11)">
        <image x="51333.18" y="9524.68" width="14201.29" height="25244.44" xlink:href="logo-A3GS_Images\logo-A3GS_ImgID12.png"/>
       </g>
      </g>
      <path fill="#4D4D4D" fill-opacity="0.231373" d="M60149.33 9530.18c324.58,4924.51 -1164.29,9127.6 -2760.49,12325.71l-805.92 -1705.19c1401.21,-1984.72 3848.04,-7466.74 3566.41,-10620.52z"/>
      <g>
       <g clip-path="url(#id12)">
        <image x="56582.92" y="9530.18" width="3611.3" height="12325.71" xlink:href="logo-A3GS_Images\logo-A3GS_ImgID13.png"/>
       </g>
      </g>
     </g>
    </g>
   </g>
   <g>
    <path fill="#FEFEFE" d="M7285.45 6172.95c-20.97,-73.6 -11.44,-147.67 23.11,-217.18 32.01,-64.39 82.33,-111.82 149.56,-137.52 64.89,-24.8 136.87,-27.85 205.42,-21.87 58.84,5.13 120.72,5.95 179.28,-2.63 46.29,-6.77 87.91,-26.92 125.36,-54.45 51.05,-37.52 90.34,-101.57 118.07,-157.35 41.96,-84.41 70.55,-180.77 53.39,-275.48 -11.96,-66.01 -40.24,-117.19 -101.36,-147.56 -37.97,-18.88 -77.2,-27.9 -118.29,-14.5 -52.09,17.01 -97.19,49.17 -135.87,87.44 -68.11,67.39 -132.07,143.43 -193,217.32 -94.22,114.25 -199.09,227.11 -315,319.71 -102.29,81.73 -218.28,138.64 -347.84,160.83 -138.05,23.63 -273.41,-6.96 -397.55,-68.66 -126.69,-62.97 -227.34,-155.68 -294.84,-280.2 -69.75,-128.67 -90.9,-273.15 -79.89,-417.9 12.67,-166.64 67.98,-328.09 141.99,-476.96 58.52,-117.72 131.64,-232.6 225.34,-325.58 77.16,-76.56 165.84,-142.68 266.24,-185.46 83.71,-35.66 173.79,-59.5 265.26,-59.09 79.22,0.35 157.7,15.28 228.97,50.7 72.06,35.81 123.75,94.7 154.13,169.02 32.65,79.84 29.62,163.17 -8.76,240.37 -30.87,62.09 -76.7,114.79 -143.34,139.02 -57.08,20.74 -125.82,26.13 -186.17,27.73l-1.7 0.05 -1.71 -0.01c-68.3,-0.51 -140.74,7.47 -203.77,35.32 -60,26.5 -110.85,114.22 -138.49,169.82 -34.45,69.31 -61.13,151.41 -48.29,229.62 7.3,44.49 22.68,86.4 65.02,107.44 18.82,9.35 37.77,14.33 58.64,10.46 29.54,-5.49 57.91,-20.43 82.36,-37.44 33.37,-23.2 64.64,-49.36 92.55,-78.95 50.31,-53.36 98.66,-109.65 145.91,-165.72 79.2,-93.97 161.15,-187.04 249.14,-272.92 76.77,-74.93 162.23,-143.06 256.89,-194.08 91.95,-49.56 191.16,-75.47 295.59,-76.96 115.95,-1.66 229.03,33.33 332.04,84.54 136.08,67.64 245.78,166.04 323.49,296.66 80.7,135.65 111.01,288.08 105.43,444.81 -6.41,179.66 -63.08,353.67 -142.61,513.66 -92.05,185.17 -217.7,361.96 -392.66,477 -113,74.31 -238.33,117.52 -372.71,131.65 -24.3,2.56 -48.68,4.15 -73,4.63 36.61,38.23 61.19,84.42 75.56,135.51 14.95,53.13 21.83,108.85 23.76,163.92 5.24,149.52 -3.08,300.87 -32.66,447.74 -29.19,144.94 -81.31,284.66 -147.01,416.85 -77.25,155.4 -176.82,298.84 -303.93,417.66 -118.26,110.55 -254.14,194.19 -407.95,244.98 -99.89,32.97 -202.36,50.44 -305.98,54.02 20.69,19.71 40.41,40.63 59.15,62.74 71.77,84.73 122.54,182.24 154.52,288.49 33.49,111.24 42.35,226.67 31.31,342.09 -11.98,125.23 -50.02,245.43 -105.88,357.82 -57.17,115 -133.21,218.63 -233.11,300.12 -59.43,48.47 -123.49,90.35 -192.42,122.64 36.67,35.41 63.11,80.21 80.11,130.79 28.06,83.57 21.89,168.22 -17.33,247.09 -21.19,42.64 -49.91,81.09 -88.27,109.77 -34.16,25.53 -72.49,43.42 -114.23,52.4 -44.63,9.61 -95.5,8.83 -140.98,6.89 -44.45,-1.9 -88.8,-4.64 -133.2,-7.31l-1.9 -0.11 -235.03 -23.08 -347.06 698.18 163.52 174.59c57.82,61.72 135.35,146.11 173.28,221.95 40.42,80.79 27.29,168.04 -11.74,246.57 -37.77,75.99 -100.17,129 -179.78,157.92 -78.77,28.62 -160.58,28.81 -236.19,-8.77 -38.15,-18.97 -72.81,-44.14 -103.54,-73.57 -36.63,-35.06 -71.27,-74.33 -105.26,-111.98l-1055.7 -1169.51c-36.28,-40.2 -72.62,-80.33 -109,-120.44 -41.61,-45.87 -81.19,-95.84 -111.77,-149.82 -31.16,-55.04 -48.22,-114.98 -51.71,-178.17 -4.01,-72.62 15.93,-142.84 48.02,-207.41 32.37,-65.13 76.42,-124.36 137.3,-165.39 51.72,-34.86 108.86,-57.83 170.58,-66.87 53.23,-7.81 107.29,-9.48 160.94,-5.59 63.26,4.6 126.49,10.35 188.37,16.64l1171.38 89.88c-0.79,-2.37 -1.55,-4.75 -2.28,-7.16 -23.6,-77.34 -14.64,-154.82 21.25,-227.04 21.96,-44.18 56.11,-79.07 98.37,-104.27 42.58,-25.4 90.53,-39.53 140.24,-33.14 100.19,10.24 225.95,16.36 324.01,-9.7 69.38,-18.43 113.2,-70.17 144.29,-132.71 21.67,-43.6 30.82,-90.07 29.6,-138.62 -1.3,-51.69 -17.71,-99.03 -44.81,-142.88 -30.59,-49.51 -73.94,-84.54 -125.81,-110.31 -68.78,-34.19 -146.57,-55.53 -222.14,-31.78 -73.68,23.15 -121.05,82.11 -154.43,149.27 -12.49,25.09 -23.07,53.39 -33.05,79.58 -10.77,28.27 -22.23,58.78 -35.71,85.88 -32.41,65.2 -80.14,120.52 -149.47,147.27 -69.52,26.83 -140.54,18.08 -206.55,-14.74 -70.56,-35.08 -117.63,-93.5 -135.08,-170.47 -18.14,-80.04 5.08,-162.34 40.74,-234.08l28.09 -56.52c30.21,-60.78 41.3,-123.06 26.4,-189.55 -14.24,-63.53 -58.77,-102.43 -115.54,-130.64 -47.59,-23.66 -94.38,-27.11 -145.09,-11.4 -54.99,17.04 -89.79,57.64 -114.88,108.13 -16.4,32.98 -32.87,74.05 -34.97,111.27 -1.35,23.95 0.97,48.63 10.82,70.73 13.88,31.14 34.97,61.4 56.18,87.94 28.97,36.27 58.7,71.91 88.03,107.87 32.02,39.26 45.04,88.18 43.57,138.28 -1.38,46.74 -14.4,90.92 -35.12,132.62 -31.42,63.2 -85.23,105.43 -151.3,128.76 -74.29,26.23 -149.81,16.98 -219.83,-17.82 -69.13,-34.35 -123.67,-88.05 -167.31,-151.04 -49.02,-70.77 -81.26,-151.32 -102.23,-234.5 -24.84,-98.49 -27.18,-200.87 -14.64,-301.35 14.45,-115.58 52.51,-226.95 104.21,-330.97 45.93,-92.39 103.94,-178.46 176.66,-251.93 67.16,-67.86 144.54,-123.13 232.32,-161.12 83.81,-36.26 172.49,-54.95 263.96,-51.7 90.11,3.21 176.69,26.19 257.42,66.31 26.14,13 51.42,27.37 75.56,43.22 -4.89,-4.93 -9.75,-9.91 -14.57,-14.93 -113.39,-118.06 -199.92,-254.48 -252.1,-409.83 -52.1,-155.06 -65.48,-316.35 -47.97,-478.65 19.4,-179.8 77.84,-352.41 158.07,-513.82 65.52,-131.82 148.23,-257.35 253.62,-360.82 85.43,-83.9 183.75,-159.76 294.23,-207.52 90.29,-39.03 186.35,-65.73 285.09,-68.93 80.08,-2.59 164.05,6.57 236.63,42.64 76.48,38.01 128.43,101.18 153.77,182.54 25.36,81.45 18.28,162.54 -19.67,238.87 -21.87,44 -53.3,80.89 -92.75,110.2 -39.64,29.45 -84.31,48.83 -132.87,57.79l-3.56 0.66 -3.59 0.39c-74.21,8.21 -156.49,17.39 -228.77,36.26 -49.41,12.91 -95.21,40.52 -134.85,72.13 -54.46,43.44 -96.43,111.07 -127.05,172.69 -37.05,74.54 -62.72,155.02 -66.86,238.56 -3.75,75.5 9.79,147.66 39.48,217.13 32.93,77.04 84.32,144.14 144.65,201.78 74.45,71.12 162.09,127.79 254.06,173.51 168.97,83.99 371.07,148.34 560.17,101.33 167.21,-41.56 277.2,-155.93 352.55,-307.53 40.57,-81.61 71.08,-167.86 86.49,-257.83 12.8,-74.68 18.66,-150.59 18.87,-226.41l-184.2 -91.56 -113 227.35c-36.31,73.05 -85.93,150.27 -155.57,195.52 -77.5,50.34 -164.65,45.85 -245.7,5.56 -69.45,-34.52 -117.92,-92.15 -138.97,-166.83 -21.94,-77.85 -6.76,-155.59 28.67,-226.88l231 -464.73c27.58,-55.49 60.41,-111.31 101,-158.35 46.06,-53.38 106.79,-85.18 176.39,-95.47 80.46,-11.89 163.36,15.41 234.62,50.83l88.7 44.09zm-1604.17 1797.04c14.04,17.02 27.1,35 39.07,54 33.03,52.43 59.48,108.97 80.77,167.41 42.68,-22.72 87.04,-42.22 133.04,-57.43 1.34,-0.44 2.68,-0.88 4.01,-1.32 -90.61,-46.5 -176.96,-100.36 -256.89,-162.66zm-733.02 2606.46l173.36 -348.75 -568.54 -63.29 395.18 412.04z"/>
   </g>
   <path fill="#3CAAC1" fill-rule="nonzero" fill-opacity="0.949020" d="M5939.24 10216.68l-301.76 -29.63 -408.65 822.09 210.99 225.26c82.5,87.98 134.86,153.93 156.83,198.33 22.2,43.91 18.33,96.61 -11.86,157.34 -25.51,51.32 -67.05,87.63 -124.38,108.45 -57.33,20.82 -110,19.31 -157.56,-4.33 -27.78,-13.82 -54.16,-32.8 -78.91,-56.26 -24.97,-24.16 -57.98,-59.36 -100.19,-106.76l-1055.7 -1169.51c-30.18,-33.79 -66.72,-73.68 -109.16,-120.61 -42.9,-47.16 -75.69,-91.06 -98.83,-131.93 -23.14,-40.85 -36.18,-85.51 -38.88,-134.41 -2.7,-48.91 9.87,-101.37 37.72,-157.4 28.55,-57.45 63.02,-99.62 103.64,-126.99 40.61,-27.37 83.6,-44.17 129.21,-50.86 45.61,-6.69 92.16,-8.21 139.2,-4.79 47.04,3.41 109.6,8.67 186.74,16.5l1567.31 120.26c119.94,7.96 202.28,23.05 247.48,45.52 46.61,23.16 80.33,64 99.99,122.51 19.65,58.51 15.33,115.65 -12.07,170.75 -15.92,32.01 -35.37,56.99 -58.61,74.2 -22.53,17 -47.68,28.56 -75.41,34.74 -27.5,5.71 -66.29,6.99 -115.67,4.74 -50.1,-2 -93.85,-4.96 -131.48,-7.22zm-964.75 531.56l300.29 -604.08 -984.81 -109.63 684.52 713.72zm430.24 -2013.66c42.13,-84.74 53.45,-170.13 34.43,-255.91 -19.48,-86.03 -75.37,-151.97 -168.59,-198.31 -70.62,-35.11 -144.01,-41.05 -219.2,-17.37 -75.43,22.99 -133.63,76.27 -174.82,159.13 -27.85,56.04 -42.79,106.15 -45.26,150.13 -2.5,43.98 3.95,82.99 19.32,117.06 14.89,33.83 38.25,70.68 69.38,109.65 31.13,38.96 60.85,74.86 88.67,108.66 14.87,18.54 22.2,42.74 21.1,72.13 -0.64,29.64 -9.04,59.53 -24.71,91.07 -18.26,36.72 -49.71,63.37 -95.06,78.99 -45.11,16.33 -92.62,11.5 -142.06,-13.08 -48.03,-23.86 -90.92,-62.79 -129.61,-118.44 -38.23,-55.41 -67.77,-122.35 -87.48,-202.02 -20.42,-79.43 -24.14,-167.6 -12.37,-264.51 12.47,-97.16 43.98,-197.16 94.54,-298.87 44.46,-89.45 97.2,-164.83 158.19,-226.11 60.53,-61.52 127.67,-107.99 200.96,-139.69 72.59,-31.43 146.15,-45.95 220.7,-43.54 74.32,2.89 146.78,21.28 216.48,55.93 91.82,45.64 160.84,105.21 206.4,177.77 46.02,72.79 81.51,162.06 107.14,267.59 74.18,-52.38 148.16,-91.35 222.65,-115.98 73.78,-24.39 147.36,-34.2 220.04,-29.19 72.67,5.01 143.73,25.05 213.41,59.7 83.82,41.66 155.9,98.63 217.45,170.92 61.31,72.74 106.41,156.83 135.09,252.7 28.91,95.41 37.85,196.73 27.51,303.75 -10.09,106.55 -42.05,214.56 -95.89,322.84 -55,110.65 -123.92,199.7 -206.78,267.15 -83.08,67.91 -168.1,114.91 -255.74,142.39 -86.94,27.24 -169.69,38.96 -247.29,36.8 -78.07,-2.41 -137.36,-14.27 -178.79,-34.86 -53.21,-26.44 -87.63,-64.69 -103.28,-115.92 -15.41,-50.52 -10.59,-101.56 15.17,-153.35 12.64,-25.43 32.57,-46.63 60.06,-62.91 26.75,-16.07 52.61,-23.17 77.31,-19.71 151.94,15.63 272.08,11.36 361.39,-12.37 89.3,-23.72 158.76,-85.49 208.14,-184.84 28.32,-56.98 41.35,-118.62 40.02,-185.64 -2.04,-66.76 -21.71,-131.16 -59.71,-192.91 -38.48,-61.99 -93.38,-111 -166.36,-147.28 -107.35,-53.36 -206.14,-66.06 -296.61,-37.63 -90.47,28.42 -161.79,95.14 -213.99,200.14 -9.13,18.36 -21.52,48.01 -36.95,88.5 -15.42,40.48 -26.18,65.66 -31.8,76.96 -25.04,50.38 -56.71,83.38 -95.95,98.52 -39.23,15.15 -80.86,11.48 -126.06,-11 -44.26,-21.99 -71.38,-56.04 -82.07,-103.04 -10.46,-46.3 0.23,-102.06 32.76,-167.49l28.09 -56.52zm1747.52 -2516.19l387.52 192.63c51.79,25.74 90.17,51.28 115.86,76.38 25.92,25.8 44.58,57.98 55.49,97.46 11.38,39.71 18.08,86.5 20.09,140.34 5.3,154.72 -5.2,296.3 -30.75,424.51 -26.04,127.99 -72.29,258.84 -138.54,392.09 -77.23,155.38 -171.7,285.16 -282.67,389.13 -111.69,104.18 -234.97,178.55 -371.02,223.08 -135.82,45.23 -280.4,59.68 -433.75,43.33 -154.05,-16.1 -310.54,-63.92 -470.64,-143.51 -157.25,-78.17 -289.16,-173.11 -396.88,-284.79 -107.01,-111.9 -183.5,-235.65 -229.43,-372.41 -45.7,-136.04 -60.38,-281.32 -43.34,-436.09 16.34,-154.53 65.81,-314.3 148.2,-480.04 67.63,-136.07 145.91,-247.48 234.13,-333.99 88.45,-86.97 176.48,-149.49 263.86,-187.08 87.63,-38.06 170.36,-58.02 248.65,-60.78 78.07,-2.3 140.88,8.38 188.9,32.24 51.32,25.51 85.51,66.58 102.82,122.74 17.76,56.41 12.95,110.96 -13.74,164.64 -14.51,29.18 -35.14,54.17 -62.84,74.45 -27.22,20.53 -57.77,33.52 -91.38,39.72 -104.38,11.54 -185.24,24.18 -243.05,38.9 -57.57,15.42 -115.35,45.42 -171.92,90.7 -57.27,45.51 -108.6,114.53 -154.24,206.35 -47.04,94.64 -72.7,187.57 -77.19,278.11 -4.49,90.55 11.47,177.75 47.41,261.38 35.46,83.4 91.62,161.8 167.51,234.76 76.58,72.71 169.38,136.45 278.62,190.75 237.3,117.96 446.66,153.92 628.8,108.82 181.66,-45.34 321.29,-165.59 417.96,-360.05 47.04,-94.64 79.04,-189.7 95.51,-285.45 16.25,-95.28 23.05,-197.57 19.28,-305.74l-328.17 -163.13 -157.51 316.87c-37.92,76.27 -78,128.57 -120.51,156.18 -42.5,27.61 -91.17,27.48 -146.73,-0.13 -44.72,-22.23 -74.2,-57.45 -87.24,-104.42 -13.52,-47.24 -6.11,-98.76 21.97,-155.25l231 -464.73c28.32,-56.98 57.61,-102.9 87.16,-137.54 30.01,-34.39 68.53,-55.18 115.31,-61.88 47.01,-7.16 105.83,6.82 175.51,41.45zm1087.09 -1575c121.95,60.63 215.97,146.7 282.07,258.25 66.33,111.06 96.75,241.27 91.44,390.14 -5.3,148.85 -49.6,306.51 -132.22,472.72 -99.24,199.63 -218.83,345.71 -358.05,437.97 -99.79,64.9 -209.28,103.25 -328.24,115.75 -118.94,12.51 -221.27,-2.54 -306.96,-45.14 -49.45,-24.58 -83.16,-63.06 -101.86,-115.22 -18.24,-51.93 -13.88,-104.37 12.57,-157.58 21.53,-43.31 53.21,-72.78 95.73,-88.63 42.29,-16.57 95.9,-21.62 161.04,-15.67 76.67,6.41 144.85,5.07 202.45,-3.3 58.3,-8.6 114.91,-32.71 170.08,-72.81 54.94,-40.81 104.39,-104.88 148.39,-193.41 60.15,-121 81.06,-233.92 62.23,-337.81 -18.82,-103.89 -70.48,-177.14 -155.23,-219.27 -67.33,-33.47 -132.02,-40.37 -193.81,-20.01 -62.26,20.14 -120.73,57.43 -175.16,111.4 -54.2,53.5 -121.04,128.9 -199.82,224.79 -105.99,128.17 -206.63,230.23 -300.28,305.22 -94.36,75.24 -195.12,122.03 -302.31,140.39 -107.18,18.36 -218.93,-1.37 -336.18,-59.65 -111.11,-55.24 -195,-134.52 -251.45,-238.32 -55.98,-103.56 -78.59,-224.62 -68.09,-362.67 10.49,-138.07 54.6,-284.66 131.83,-440.04 61.56,-123.83 130.46,-223.46 206.23,-299.12 76.01,-74.95 154.42,-129.92 235,-164.44 80.34,-34.04 155.79,-51.16 225.63,-51.09 69.6,0.55 131.71,13.81 184.92,40.25 48.5,24.1 84.1,63.53 106.09,117.32 21.99,53.81 19.77,106.71 -5.75,158.04 -23.4,47.08 -52.73,76.54 -87.97,89.56 -35.71,12.78 -87.43,19.97 -154.67,21.75 -94.77,-0.71 -176.34,13.35 -244.93,43.85 -68.35,30.01 -130.74,102.36 -187.6,216.77 -52.43,105.47 -71.95,202.63 -57.42,290.31 14.32,88.15 53.73,148.25 119.18,180.79 40.49,20.13 80.71,26.61 121.38,19.23 40.19,-7.62 80.83,-25.57 121.2,-53.66 40.39,-28.08 76.29,-58.97 108.19,-92.44 31.43,-33.69 81.39,-90.48 149.62,-169.88 83.48,-100.61 164.17,-189.67 242.53,-265.82 77.89,-76.37 156.05,-135.58 234.49,-177.62 77.97,-42.27 161.39,-63.62 249.58,-65 88.65,-1.15 183.94,23.31 286.11,74.1z"/>
  </g>
 </g>
</svg>
