<svg xmlns="http://www.w3.org/2000/svg" viewBox="00 0 80.05 80.09" style="fill:#006ad5">
    <g id="Camada_1" data-name="Camada 1" >
        <path d="M80.05,11.14V64a2.84,2.84,0,0,1-3,1.74H51.81v9.69h7a2.35,2.35,0,0,1,2.34,2.32,1.85,1.85,0,0,1,0,.47,2.68,2.68,0,0,1-1.67,1.87H20.68c-.09,0-.17-.12-.26-.16a2.35,2.35,0,0,1,1-4.53h6.85V65.67H3a2.84,2.84,0,0,1-3-1.74V11.14A2.74,2.74,0,0,1,3.05,9.41c1.43.08,2.86,0,4.29,0H9.43V3a2.76,2.76,0,0,1,1.73-3H69a2.73,2.73,0,0,1,1.73,3c-.08,1.43,0,2.86,0,4.29V9.43H77.1A2.76,2.76,0,0,1,80.05,11.14ZM66,23.54H14.17v28H66ZM4.77,60.93H75.3V14.16H70.67v39.4c0,1.88-.86,2.74-2.77,2.74H12.2a2.62,2.62,0,0,1-2.8-2.43h0a2.81,2.81,0,0,1,0-.41V14.12H4.77ZM66,4.79H14.18v14H66ZM33.05,75.31h14V65.72h-14Z" ></path>
        <path d="M57.42,39.89c1,1,2,1.91,2.86,2.83a2.38,2.38,0,0,1-2.94,3.75h0a2.33,2.33,0,0,1-.41-.42c-.92-.92-1.82-1.85-2.81-2.85L51.39,46c-1.66,1.65-3.59,1.19-4.33-1-1.48-4.43-3-8.86-4.44-13.28a2.43,2.43,0,0,1,3.22-3.28c4.44,1.5,8.89,3,13.34,4.47,2.21.75,2.65,2.67,1,4.33C59.29,38.05,58.39,38.93,57.42,39.89Zm-3.19-3.72-5.75-1.91,1.91,5.79Z" ></path>
        <path d="M28.33,32.86H21.46A2.35,2.35,0,1,1,21,28.18H35.2a2.35,2.35,0,0,1,.48,4.68H28.33Z" ></path>
        <path d="M28.33,37.55H35.2a2.35,2.35,0,0,1,.31,4.69h-14a2.35,2.35,0,1,1-.31-4.69h7.13Z" ></path>
        <path d="M21.3,9.43A2.34,2.34,0,1,1,19,11.81v0h0a2.3,2.3,0,0,1,2.3-2.3Z" ></path>
        <path d="M33.05,11.73a2.35,2.35,0,1,1-2.4-2.3h.06a2.32,2.32,0,0,1,2.34,2.3Z" ></path>
        <path d="M42.39,11.73A2.34,2.34,0,1,1,40,9.43h0a2.3,2.3,0,0,1,2.34,2.26v0Z" ></path>
    </g>
</svg>